<svg width="161" height="48" viewBox="0 0 161 48" fill="none" xmlns="http://www.w3.org/2000/svg">
<rect width="161" height="48" fill="#4E4949"/>
<rect width="1440" height="1024" transform="translate(-277 -271)" fill="white"/>
<g filter="url(#filter0_d_0_1)">
<path d="M24.1328 32.5156C24.4766 33.4688 25.0469 34.1016 25.8438 34.4141C25.2188 34.6172 24.6328 34.9844 24.0859 35.5156C23.5391 36.0469 23.2422 36.3906 23.1953 36.5469C22.6953 38.0938 21.3359 39.3594 19.1172 40.3438C17.0703 41.25 15.1562 41.7031 13.375 41.7031C11.5938 41.7031 10.0859 41.4766 8.85156 41.0234C7.63281 40.5859 6.55469 39.9688 5.61719 39.1719C3.55469 37.4375 2.52344 35.3125 2.52344 32.7969C2.52344 31.1406 1.96875 29.9453 0.859375 29.2109C1.32812 28.4453 1.98438 28.0625 2.82812 28.0625C3.29688 28.0625 3.75 28.1953 4.1875 28.4609C4.92188 27.5234 6.3125 27.0547 8.35938 27.0547C8.70312 27.0547 8.94531 27.1406 9.08594 27.3125C8.88281 27.5469 8.83594 27.8906 8.94531 28.3438C9.07031 28.7812 9.13281 29.0547 9.13281 29.1641V29.4453C9.13281 29.5234 9.14844 29.6016 9.17969 29.6797C9.33594 29.6484 9.5 29.6328 9.67188 29.6328C9.84375 29.6328 10.0547 29.6797 10.3047 29.7734C10.5703 29.8672 10.8047 30 11.0078 30.1719C11.4766 30.5625 11.7109 31.0234 11.7109 31.5547C11.7109 31.6953 11.6875 31.8203 11.6406 31.9297C11.3594 31.8203 11.0547 31.7656 10.7266 31.7656C10.3984 31.7656 10.0703 31.8203 9.74219 31.9297C9.41406 32.0391 9.10938 32.2188 8.82812 32.4688C8.20312 33.0156 7.89062 33.8125 7.89062 34.8594C7.89062 35.875 8.28125 36.75 9.0625 37.4844C9.85938 38.2031 10.8828 38.5625 12.1328 38.5625C13.3984 38.5625 14.5234 38.1953 15.5078 37.4609V25.625C15.5078 24.9062 15.3594 24.375 15.0625 24.0312C14.5938 23.4531 13.7891 22.8828 12.6484 22.3203C13.7109 21.8359 14.3984 21.4062 14.7109 21.0312C15.2422 20.4219 15.5078 19.7344 15.5078 18.9688V9.07812C14.9766 7.875 14.0156 7.27344 12.625 7.27344C12.0938 7.27344 11.6562 7.40625 11.3125 7.67188C11.1406 7.4375 11.0547 7.17188 11.0547 6.875C11.0547 6.5625 11.1406 6.27344 11.3125 6.00781C11.5 5.74219 11.75 5.51562 12.0625 5.32812C12.7812 4.89062 13.6016 4.67188 14.5234 4.67188C15.4609 4.67188 16.3203 4.92969 17.1016 5.44531C17.9141 4.92969 18.8203 4.67188 19.8203 4.67188C20.8203 4.67188 21.7266 4.92969 22.5391 5.44531C23.3203 4.92969 24.0547 4.67188 24.7422 4.67188C25.4297 4.67188 25.9922 4.73438 26.4297 4.85938C26.8672 4.96875 27.25 5.125 27.5781 5.32812C28.25 5.73437 28.5859 6.24219 28.5859 6.85156C28.5859 7.16406 28.5 7.4375 28.3281 7.67188C27.9844 7.40625 27.5469 7.27344 27.0156 7.27344C25.625 7.27344 24.6641 7.875 24.1328 9.07812V18.9688C24.1328 19.7344 24.2969 20.3047 24.625 20.6797C25.1406 21.2891 25.9297 21.8359 26.9922 22.3203C25.8516 22.8828 25.125 23.3438 24.8125 23.7031C24.3594 24.2656 24.1328 24.9062 24.1328 25.625V32.5156ZM17.7578 34.7891C18.5391 34.4922 18.9688 33.4688 19.0469 31.7188C19.1406 29.9688 19.1875 27.5469 19.1875 24.4531C19.1875 21.3594 19.1797 19.3047 19.1641 18.2891C19.1641 17.2578 19.1562 16.4297 19.1406 15.8047C19.0938 13.9609 18.9141 12.8516 18.6016 12.4766C18.3047 12.0859 18.0234 11.8281 17.7578 11.7031C17.7578 17.1406 17.6641 20.2344 17.4766 20.9844C17.2578 21.6094 16.7266 22.0547 15.8828 22.3203C16.8203 22.6484 17.3516 23.0469 17.4766 23.5156C17.6641 24.2656 17.7578 27.0078 17.7578 31.7422V34.7891ZM37.2059 26.924C37.2059 26.204 37.4099 25.664 37.8179 25.304C38.2259 24.92 38.7179 24.728 39.2939 24.728C39.8699 24.728 40.3259 24.896 40.6619 25.232V35.564C40.6619 36.932 40.8779 37.964 41.3099 38.66C41.7419 39.356 42.3299 39.704 43.0739 39.704C43.8179 39.704 44.5379 39.272 45.2339 38.408C46.0499 37.376 46.4579 35.468 46.4579 32.684C46.4819 32.54 46.6619 32.468 46.9979 32.468C47.4299 32.468 47.6459 33.104 47.6459 34.376C47.6459 36.416 47.2019 38.048 46.3139 39.272C45.4499 40.496 44.2259 41.108 42.6419 41.108C40.1219 41.108 38.4659 39.968 37.6739 37.688C36.7379 39.968 35.0219 41.108 32.5259 41.108C31.0379 41.108 29.8379 40.664 28.9259 39.776C28.0139 38.864 27.5579 37.568 27.5579 35.888V26.924C27.5579 26.204 27.7379 25.664 28.0979 25.304C28.4579 24.92 28.9139 24.728 29.4659 24.728C30.0179 24.728 30.4619 24.896 30.7979 25.232V35.564C30.7979 38.42 31.5179 39.848 32.9579 39.848C34.0379 39.848 35.0099 39.2 35.8739 37.904C36.7619 36.608 37.2059 34.784 37.2059 32.432V26.924ZM57.0902 32.468C57.5222 32.468 57.7382 33.104 57.7382 34.376C57.7382 36.224 57.2342 37.808 56.2262 39.128C55.2182 40.448 53.9342 41.108 52.3742 41.108C50.4302 41.108 48.9782 40.532 48.0182 39.38C47.0582 38.228 46.5782 36.596 46.5782 34.484V20.948C46.5782 17.852 46.9022 15.584 47.5502 14.144C48.1982 12.704 49.3382 11.984 50.9702 11.984C53.3462 11.984 54.5342 13.592 54.5342 16.808C54.5342 19.232 54.0542 21.176 53.0942 22.64C52.1582 24.104 51.0782 25.196 49.8542 25.916V35.564C49.8542 36.932 50.1182 37.964 50.6462 38.66C51.1742 39.356 51.8942 39.704 52.8062 39.704C53.7182 39.704 54.5702 39.152 55.3622 38.048C56.1542 36.944 56.5502 35.156 56.5502 32.684C56.5982 32.54 56.7782 32.468 57.0902 32.468ZM52.9862 16.844C52.9862 14.54 52.4102 13.388 51.2582 13.388C50.9702 13.388 50.7422 13.484 50.5742 13.676C50.4302 13.868 50.2982 14.348 50.1782 15.116C49.9622 16.292 49.8542 19.388 49.8542 24.404C51.9422 22.892 52.9862 20.372 52.9862 16.844ZM66.7478 41.4688C65.7166 41.4688 64.8025 41.2188 64.0056 40.7188C63.2088 41.2188 62.4666 41.4688 61.7791 41.4688C61.1072 41.4688 60.5525 41.4062 60.115 41.2812C59.6775 41.1719 59.2947 41.0156 58.9666 40.8125C58.2947 40.4062 57.9588 39.8984 57.9588 39.2891C57.9588 38.9766 58.0447 38.7031 58.2166 38.4688C58.5603 38.7344 58.9978 38.8672 59.5291 38.8672C60.9197 38.8672 61.8806 38.2734 62.4119 37.0859V25.625C62.4119 24.9062 62.2634 24.375 61.9666 24.0312C61.4978 23.4531 60.6931 22.8828 59.5525 22.3203C60.615 21.8359 61.3025 21.4062 61.615 21.0312C62.1463 20.4219 62.4119 19.7344 62.4119 18.9688V9.07812C61.8806 7.875 60.9197 7.27344 59.5291 7.27344C58.9978 7.27344 58.5603 7.40625 58.2166 7.67188C58.0447 7.4375 57.9588 7.17188 57.9588 6.875C57.9588 6.5625 58.0447 6.27344 58.2166 6.00781C58.4041 5.74219 58.6541 5.51562 58.9666 5.32812C59.6853 4.89062 60.5056 4.67188 61.4275 4.67188C62.365 4.67188 63.2244 4.92969 64.0056 5.44531C64.8181 4.92969 65.7478 4.67188 66.7947 4.67188C67.8416 4.67188 68.7947 4.97656 69.6541 5.58594C71.3103 4.97656 73.2244 4.67188 75.3963 4.67188C77.0056 4.67188 78.3806 4.82813 79.5213 5.14062L81.6072 5.70312C81.8572 5.76563 82.0994 5.79688 82.3338 5.79688C82.7713 5.79688 82.99 5.48438 82.99 4.85938C82.99 4.70312 82.9353 4.4375 82.8259 4.0625C83.2634 3.98438 83.8181 3.94531 84.49 3.94531C85.1619 3.94531 85.7322 4.17188 86.2009 4.625C86.6697 5.0625 86.9041 5.70312 86.9041 6.54688C86.9041 7.375 86.7556 7.98437 86.4588 8.375C86.8806 9 87.0916 9.76562 87.0916 10.6719C87.0916 11.5625 86.7869 12.3125 86.1775 12.9219C86.365 13.3906 86.4588 13.8516 86.4588 14.3047C86.4588 14.7422 86.3806 15.1484 86.2244 15.5234C86.0838 15.8828 85.9041 16.1875 85.6853 16.4375C85.2478 16.8906 84.8025 17.1172 84.3494 17.1172C83.6931 17.1172 83.0994 16.9766 82.5681 16.6953C82.7556 16.3203 82.8494 15.7656 82.8494 15.0312C82.8494 13.3125 82.4197 11.8047 81.5603 10.5078C80.3884 8.72656 78.6306 7.83594 76.2869 7.83594C75.0994 7.83594 74.0213 8.125 73.0525 8.70312C72.0994 9.28125 71.4275 10.1094 71.0369 11.1875V20.2578C71.5838 20.6016 72.0916 20.7734 72.5603 20.7734C73.0447 20.7734 73.4041 20.7656 73.6384 20.75C73.8884 20.7344 74.1384 20.7031 74.3884 20.6562C75.0291 20.5625 75.5213 20.4375 75.865 20.2812C76.5213 19.9688 76.8494 19.2031 76.8494 17.9844C76.8494 17.2969 76.6853 16.7656 76.3572 16.3906C76.6697 16.1719 77.0603 16.0625 77.5291 16.0625C78.5759 16.0625 79.3338 16.4844 79.8025 17.3281C79.9744 17.625 80.0603 17.9531 80.0603 18.3125C80.0603 18.6719 79.9666 19.1172 79.7791 19.6484C80.4197 20.3828 80.74 21.2578 80.74 22.2734C80.74 23.2734 80.4197 24.1406 79.7791 24.875C79.9666 25.4062 80.0603 25.8906 80.0603 26.3281C80.0603 26.75 79.9744 27.1562 79.8025 27.5469C79.6306 27.9375 79.4197 28.25 79.1697 28.4844C78.6853 28.9219 78.1384 29.1406 77.5291 29.1406C77.0916 29.1406 76.7009 29.0156 76.3572 28.7656C76.6853 28.2188 76.8494 27.5781 76.8494 26.8438C76.8494 25.3906 76.4509 24.4922 75.6541 24.1484C74.9509 23.8672 74.1463 23.7266 73.24 23.7266C72.3338 23.7266 71.5994 23.8906 71.0369 24.2188V35.9375C71.9431 37.5312 73.6931 38.3281 76.2869 38.3281C79.2244 38.3281 81.2244 37.4219 82.2869 35.6094C83.5213 33.5312 84.1384 31.3047 84.1384 28.9297C84.1384 28.2422 84.0759 27.7109 83.9509 27.3359C84.3416 26.9453 84.7478 26.75 85.1697 26.75C85.5916 26.75 85.9119 26.8125 86.1306 26.9375C86.3494 27.0469 86.5447 27.1875 86.7166 27.3594C87.0916 27.7812 87.2791 28.2109 87.2791 28.6484L87.1384 29.7969C87.1384 30.0938 87.2166 30.3359 87.3728 30.5234C87.6853 30.8516 87.8416 31.1641 87.8416 31.4609C87.8416 31.7422 87.7478 32.0859 87.5603 32.4922C87.9197 32.6953 88.24 33 88.5213 33.4062C88.8181 33.7969 88.9666 34.2031 88.9666 34.625C88.9666 35.5156 88.5916 36.3125 87.8416 37.0156C88.1697 37.4844 88.3338 38.1641 88.3338 39.0547C88.3338 39.9297 88.0759 40.6719 87.5603 41.2812C87.0603 41.9062 86.4041 42.2188 85.5916 42.2188C85.1541 42.2188 84.7009 42.1719 84.2322 42.0781C84.2947 41.7344 84.3259 41.3906 84.3259 41.0469C84.3259 40.3281 83.9978 39.9688 83.3416 39.9688C82.6072 39.9688 81.8728 40.1172 81.1384 40.4141C79.4041 41.1172 77.4275 41.4688 75.2088 41.4688C73.0056 41.4688 71.1306 41.1797 69.5838 40.6016C68.7713 41.1797 67.8259 41.4688 66.7478 41.4688ZM64.6619 34.7891C65.4431 34.4922 65.8728 33.4688 65.9509 31.7188C66.0447 29.9688 66.0916 27.5469 66.0916 24.4531C66.0916 21.3594 66.0838 19.3047 66.0681 18.2891C66.0681 17.2578 66.0603 16.4297 66.0447 15.8047C65.9978 13.9609 65.8181 12.8516 65.5056 12.4766C65.2088 12.0859 64.9275 11.8281 64.6619 11.7031C64.6619 17.1406 64.5681 20.2344 64.3806 20.9844C64.1619 21.6094 63.6306 22.0547 62.7869 22.3203C63.7244 22.6484 64.2556 23.0469 64.3806 23.5156C64.5681 24.2656 64.6619 27.0078 64.6619 31.7422V34.7891ZM70.5681 34.5547C70.5681 34.6016 70.5759 34.6406 70.5916 34.6719L70.5681 34.5547ZM107.002 33.62C107.506 33.62 107.758 33.968 107.758 34.664C107.758 35.36 107.614 36.056 107.326 36.752C107.038 37.448 106.618 38.132 106.066 38.804C105.538 39.476 104.782 40.028 103.798 40.46C102.838 40.892 101.746 41.108 100.522 41.108C97.8338 41.108 95.7218 40.436 94.1858 39.092C92.6738 37.724 91.9178 35.732 91.9178 33.116C91.9178 30.476 92.5898 28.424 93.9338 26.96C95.2778 25.472 96.9938 24.728 99.0818 24.728C100.594 24.728 101.698 25.136 102.394 25.952C103.09 26.744 103.438 27.692 103.438 28.796C103.438 29.396 103.258 29.876 102.898 30.236C102.538 30.596 102.19 30.776 101.854 30.776C101.23 30.776 100.822 30.632 100.63 30.344C100.774 29.984 100.846 29.468 100.846 28.796C100.846 28.124 100.618 27.512 100.162 26.96C99.7058 26.408 99.1538 26.132 98.5058 26.132C97.3778 26.132 96.5618 26.684 96.0578 27.788C95.5778 28.892 95.3378 30.632 95.3378 33.008C95.3378 35.36 95.7938 37.064 96.7058 38.12C97.6418 39.176 98.9378 39.704 100.594 39.704C102.25 39.704 103.642 39.2 104.77 38.192C105.898 37.16 106.462 35.708 106.462 33.836C106.486 33.692 106.666 33.62 107.002 33.62ZM113.78 24.728C115.916 24.728 117.656 25.436 119 26.852C120.344 28.268 121.016 30.2 121.016 32.648C121.016 35.072 120.38 37.088 119.108 38.696C117.86 40.304 116.18 41.108 114.068 41.108C111.956 41.108 110.192 40.388 108.776 38.948C107.384 37.484 106.688 35.468 106.688 32.9C106.688 30.308 107.336 28.304 108.632 26.888C109.952 25.448 111.668 24.728 113.78 24.728ZM113.816 26.132C113.168 26.132 112.604 26.3 112.124 26.636C111.668 26.948 111.44 27.404 111.44 28.004C111.44 29.54 112.04 31.016 113.24 32.432C114.44 33.824 115.868 34.748 117.524 35.204C117.572 34.292 117.596 33.512 117.596 32.864C117.596 30.368 117.332 28.628 116.804 27.644C116.276 26.636 115.28 26.132 113.816 26.132ZM110.108 32.864C110.108 35.312 110.408 37.064 111.008 38.12C111.632 39.176 112.64 39.704 114.032 39.704C114.992 39.704 115.724 39.464 116.228 38.984C116.756 38.48 117.116 37.676 117.308 36.572C115.748 36.236 114.308 35.528 112.988 34.448C111.692 33.368 110.744 32.168 110.144 30.848C110.12 31.256 110.108 31.928 110.108 32.864ZM132.632 38.912V30.272C132.632 27.416 131.912 25.988 130.472 25.988C129.272 25.988 128.348 26.648 127.7 27.968C127.076 29.288 126.764 31.616 126.764 34.952V40.604C126.524 40.94 126.104 41.108 125.504 41.108C124.904 41.108 124.424 40.928 124.064 40.568C123.704 40.184 123.524 39.632 123.524 38.912V25.232C123.764 24.896 124.184 24.728 124.784 24.728C125.384 24.728 125.864 24.92 126.224 25.304C126.584 25.664 126.764 26.204 126.764 26.924C127.58 25.46 128.96 24.728 130.904 24.728C133.184 24.728 134.72 25.7 135.512 27.644C136.328 25.7 137.852 24.728 140.084 24.728C141.644 24.728 142.88 25.22 143.792 26.204C144.728 27.188 145.196 28.604 145.196 30.452V35.564C145.196 36.932 145.412 37.964 145.844 38.66C146.276 39.356 146.912 39.704 147.752 39.704C148.616 39.704 149.372 39.176 150.02 38.12C150.668 37.04 150.992 35.228 150.992 32.684C151.016 32.54 151.196 32.468 151.532 32.468C151.964 32.468 152.18 33.104 152.18 34.376C152.18 36.416 151.736 38.048 150.848 39.272C149.984 40.496 148.712 41.108 147.032 41.108C145.352 41.108 144.056 40.532 143.144 39.38C142.256 38.228 141.812 36.596 141.812 34.484V30.272C141.812 27.416 141.092 25.988 139.652 25.988C137.204 25.988 135.98 29 135.98 35.024V40.604C135.74 40.94 135.308 41.108 134.684 41.108C134.084 41.108 133.592 40.928 133.208 40.568C132.824 40.184 132.632 39.632 132.632 38.912Z" fill="#EC4899"/>
</g>
<defs>
<filter id="filter0_d_0_1" x="0.259375" y="0.345313" width="160.521" height="47.4734" filterUnits="userSpaceOnUse" color-interpolation-filters="sRGB">
<feFlood flood-opacity="0" result="BackgroundImageFix"/>
<feColorMatrix in="SourceAlpha" type="matrix" values="0 0 0 0 0 0 0 0 0 0 0 0 0 0 0 0 0 0 127 0" result="hardAlpha"/>
<feOffset dx="4" dy="1"/>
<feGaussianBlur stdDeviation="2.3"/>
<feComposite in2="hardAlpha" operator="out"/>
<feColorMatrix type="matrix" values="0 0 0 0 0 0 0 0 0 0 0 0 0 0 0 0 0 0 0.42 0"/>
<feBlend mode="normal" in2="BackgroundImageFix" result="effect1_dropShadow_0_1"/>
<feBlend mode="normal" in="SourceGraphic" in2="effect1_dropShadow_0_1" result="shape"/>
</filter>
</defs>
</svg>
