<svg width="72" height="48" viewBox="0 0 72 48" fill="none" xmlns="http://www.w3.org/2000/svg">
<rect width="72" height="48" fill="#4E4949"/>
<rect width="1440" height="1024" transform="translate(-46 -28)" fill="white"/>
<g filter="url(#filter0_d_0_1)">
<path d="M24.1328 31.5156C24.4766 32.4688 25.0469 33.1016 25.8438 33.4141C25.2188 33.6172 24.6328 33.9844 24.0859 34.5156C23.5391 35.0469 23.2422 35.3906 23.1953 35.5469C22.6953 37.0938 21.3359 38.3594 19.1172 39.3438C17.0703 40.25 15.1562 40.7031 13.375 40.7031C11.5938 40.7031 10.0859 40.4766 8.85156 40.0234C7.63281 39.5859 6.55469 38.9688 5.61719 38.1719C3.55469 36.4375 2.52344 34.3125 2.52344 31.7969C2.52344 30.1406 1.96875 28.9453 0.859375 28.2109C1.32812 27.4453 1.98438 27.0625 2.82812 27.0625C3.29688 27.0625 3.75 27.1953 4.1875 27.4609C4.92188 26.5234 6.3125 26.0547 8.35938 26.0547C8.70312 26.0547 8.94531 26.1406 9.08594 26.3125C8.88281 26.5469 8.83594 26.8906 8.94531 27.3438C9.07031 27.7812 9.13281 28.0547 9.13281 28.1641V28.4453C9.13281 28.5234 9.14844 28.6016 9.17969 28.6797C9.33594 28.6484 9.5 28.6328 9.67188 28.6328C9.84375 28.6328 10.0547 28.6797 10.3047 28.7734C10.5703 28.8672 10.8047 29 11.0078 29.1719C11.4766 29.5625 11.7109 30.0234 11.7109 30.5547C11.7109 30.6953 11.6875 30.8203 11.6406 30.9297C11.3594 30.8203 11.0547 30.7656 10.7266 30.7656C10.3984 30.7656 10.0703 30.8203 9.74219 30.9297C9.41406 31.0391 9.10938 31.2188 8.82812 31.4688C8.20312 32.0156 7.89062 32.8125 7.89062 33.8594C7.89062 34.875 8.28125 35.75 9.0625 36.4844C9.85938 37.2031 10.8828 37.5625 12.1328 37.5625C13.3984 37.5625 14.5234 37.1953 15.5078 36.4609V24.625C15.5078 23.9062 15.3594 23.375 15.0625 23.0312C14.5938 22.4531 13.7891 21.8828 12.6484 21.3203C13.7109 20.8359 14.3984 20.4062 14.7109 20.0312C15.2422 19.4219 15.5078 18.7344 15.5078 17.9688V8.07812C14.9766 6.875 14.0156 6.27344 12.625 6.27344C12.0938 6.27344 11.6562 6.40625 11.3125 6.67188C11.1406 6.4375 11.0547 6.17188 11.0547 5.875C11.0547 5.5625 11.1406 5.27344 11.3125 5.00781C11.5 4.74219 11.75 4.51562 12.0625 4.32812C12.7812 3.89062 13.6016 3.67188 14.5234 3.67188C15.4609 3.67188 16.3203 3.92969 17.1016 4.44531C17.9141 3.92969 18.8203 3.67188 19.8203 3.67188C20.8203 3.67188 21.7266 3.92969 22.5391 4.44531C23.3203 3.92969 24.0547 3.67188 24.7422 3.67188C25.4297 3.67188 25.9922 3.73438 26.4297 3.85938C26.8672 3.96875 27.25 4.125 27.5781 4.32812C28.25 4.73437 28.5859 5.24219 28.5859 5.85156C28.5859 6.16406 28.5 6.4375 28.3281 6.67188C27.9844 6.40625 27.5469 6.27344 27.0156 6.27344C25.625 6.27344 24.6641 6.875 24.1328 8.07812V17.9688C24.1328 18.7344 24.2969 19.3047 24.625 19.6797C25.1406 20.2891 25.9297 20.8359 26.9922 21.3203C25.8516 21.8828 25.125 22.3438 24.8125 22.7031C24.3594 23.2656 24.1328 23.9062 24.1328 24.625V31.5156ZM17.7578 33.7891C18.5391 33.4922 18.9688 32.4688 19.0469 30.7188C19.1406 28.9688 19.1875 26.5469 19.1875 23.4531C19.1875 20.3594 19.1797 18.3047 19.1641 17.2891C19.1641 16.2578 19.1562 15.4297 19.1406 14.8047C19.0938 12.9609 18.9141 11.8516 18.6016 11.4766C18.3047 11.0859 18.0234 10.8281 17.7578 10.7031C17.7578 16.1406 17.6641 19.2344 17.4766 19.9844C17.2578 20.6094 16.7266 21.0547 15.8828 21.3203C16.8203 21.6484 17.3516 22.0469 17.4766 22.5156C17.6641 23.2656 17.7578 26.0078 17.7578 30.7422V33.7891ZM40.4688 40.4688C39.4375 40.4688 38.5234 40.2188 37.7266 39.7188C36.9297 40.2188 36.1875 40.4688 35.5 40.4688C34.8281 40.4688 34.2734 40.4062 33.8359 40.2812C33.3984 40.1719 33.0156 40.0156 32.6875 39.8125C32.0156 39.4062 31.6797 38.8984 31.6797 38.2891C31.6797 37.9766 31.7656 37.7031 31.9375 37.4688C32.2812 37.7344 32.7188 37.8672 33.25 37.8672C34.6406 37.8672 35.6016 37.2734 36.1328 36.0859V24.625C36.1328 23.9062 35.9844 23.375 35.6875 23.0312C35.2188 22.4531 34.4141 21.8828 33.2734 21.3203C34.3359 20.8359 35.0234 20.4062 35.3359 20.0312C35.8672 19.4219 36.1328 18.7344 36.1328 17.9688V8.07812C35.6016 6.875 34.6406 6.27344 33.25 6.27344C32.7188 6.27344 32.2812 6.40625 31.9375 6.67188C31.7656 6.4375 31.6797 6.17188 31.6797 5.875C31.6797 5.5625 31.7656 5.27344 31.9375 5.00781C32.125 4.74219 32.375 4.51562 32.6875 4.32812C33.4062 3.89062 34.2266 3.67188 35.1484 3.67188C36.0859 3.67188 36.9453 3.92969 37.7266 4.44531C38.5391 3.92969 39.4688 3.67188 40.5156 3.67188C41.5625 3.67188 42.5156 3.97656 43.375 4.58594C45.0312 3.97656 46.9453 3.67188 49.1172 3.67188C50.7266 3.67188 52.1016 3.82813 53.2422 4.14062L55.3281 4.70312C55.5781 4.76563 55.8203 4.79688 56.0547 4.79688C56.4922 4.79688 56.7109 4.48438 56.7109 3.85938C56.7109 3.70312 56.6562 3.4375 56.5469 3.0625C56.9844 2.98438 57.5391 2.94531 58.2109 2.94531C58.8828 2.94531 59.4531 3.17188 59.9219 3.625C60.3906 4.0625 60.625 4.70312 60.625 5.54688C60.625 6.375 60.4766 6.98437 60.1797 7.375C60.6016 8 60.8125 8.76562 60.8125 9.67188C60.8125 10.5625 60.5078 11.3125 59.8984 11.9219C60.0859 12.3906 60.1797 12.8516 60.1797 13.3047C60.1797 13.7422 60.1016 14.1484 59.9453 14.5234C59.8047 14.8828 59.625 15.1875 59.4062 15.4375C58.9688 15.8906 58.5234 16.1172 58.0703 16.1172C57.4141 16.1172 56.8203 15.9766 56.2891 15.6953C56.4766 15.3203 56.5703 14.7656 56.5703 14.0312C56.5703 12.3125 56.1406 10.8047 55.2812 9.50781C54.1094 7.72656 52.3516 6.83594 50.0078 6.83594C48.8203 6.83594 47.7422 7.125 46.7734 7.70312C45.8203 8.28125 45.1484 9.10938 44.7578 10.1875V19.2578C45.3047 19.6016 45.8125 19.7734 46.2812 19.7734C46.7656 19.7734 47.125 19.7656 47.3594 19.75C47.6094 19.7344 47.8594 19.7031 48.1094 19.6562C48.75 19.5625 49.2422 19.4375 49.5859 19.2812C50.2422 18.9688 50.5703 18.2031 50.5703 16.9844C50.5703 16.2969 50.4062 15.7656 50.0781 15.3906C50.3906 15.1719 50.7812 15.0625 51.25 15.0625C52.2969 15.0625 53.0547 15.4844 53.5234 16.3281C53.6953 16.625 53.7812 16.9531 53.7812 17.3125C53.7812 17.6719 53.6875 18.1172 53.5 18.6484C54.1406 19.3828 54.4609 20.2578 54.4609 21.2734C54.4609 22.2734 54.1406 23.1406 53.5 23.875C53.6875 24.4062 53.7812 24.8906 53.7812 25.3281C53.7812 25.75 53.6953 26.1562 53.5234 26.5469C53.3516 26.9375 53.1406 27.25 52.8906 27.4844C52.4062 27.9219 51.8594 28.1406 51.25 28.1406C50.8125 28.1406 50.4219 28.0156 50.0781 27.7656C50.4062 27.2188 50.5703 26.5781 50.5703 25.8438C50.5703 24.3906 50.1719 23.4922 49.375 23.1484C48.6719 22.8672 47.8672 22.7266 46.9609 22.7266C46.0547 22.7266 45.3203 22.8906 44.7578 23.2188V34.9375C45.6641 36.5312 47.4141 37.3281 50.0078 37.3281C52.9453 37.3281 54.9453 36.4219 56.0078 34.6094C57.2422 32.5312 57.8594 30.3047 57.8594 27.9297C57.8594 27.2422 57.7969 26.7109 57.6719 26.3359C58.0625 25.9453 58.4688 25.75 58.8906 25.75C59.3125 25.75 59.6328 25.8125 59.8516 25.9375C60.0703 26.0469 60.2656 26.1875 60.4375 26.3594C60.8125 26.7812 61 27.2109 61 27.6484L60.8594 28.7969C60.8594 29.0938 60.9375 29.3359 61.0938 29.5234C61.4062 29.8516 61.5625 30.1641 61.5625 30.4609C61.5625 30.7422 61.4688 31.0859 61.2812 31.4922C61.6406 31.6953 61.9609 32 62.2422 32.4062C62.5391 32.7969 62.6875 33.2031 62.6875 33.625C62.6875 34.5156 62.3125 35.3125 61.5625 36.0156C61.8906 36.4844 62.0547 37.1641 62.0547 38.0547C62.0547 38.9297 61.7969 39.6719 61.2812 40.2812C60.7812 40.9062 60.125 41.2188 59.3125 41.2188C58.875 41.2188 58.4219 41.1719 57.9531 41.0781C58.0156 40.7344 58.0469 40.3906 58.0469 40.0469C58.0469 39.3281 57.7188 38.9688 57.0625 38.9688C56.3281 38.9688 55.5938 39.1172 54.8594 39.4141C53.125 40.1172 51.1484 40.4688 48.9297 40.4688C46.7266 40.4688 44.8516 40.1797 43.3047 39.6016C42.4922 40.1797 41.5469 40.4688 40.4688 40.4688ZM38.3828 33.7891C39.1641 33.4922 39.5938 32.4688 39.6719 30.7188C39.7656 28.9688 39.8125 26.5469 39.8125 23.4531C39.8125 20.3594 39.8047 18.3047 39.7891 17.2891C39.7891 16.2578 39.7812 15.4297 39.7656 14.8047C39.7188 12.9609 39.5391 11.8516 39.2266 11.4766C38.9297 11.0859 38.6484 10.8281 38.3828 10.7031C38.3828 16.1406 38.2891 19.2344 38.1016 19.9844C37.8828 20.6094 37.3516 21.0547 36.5078 21.3203C37.4453 21.6484 37.9766 22.0469 38.1016 22.5156C38.2891 23.2656 38.3828 26.0078 38.3828 30.7422V33.7891ZM44.2891 33.5547C44.2891 33.6016 44.2969 33.6406 44.3125 33.6719L44.2891 33.5547Z" fill="#EC4899"/>
</g>
<defs>
<filter id="filter0_d_0_1" x="0.459375" y="0.545312" width="70.6281" height="47.0734" filterUnits="userSpaceOnUse" color-interpolation-filters="sRGB">
<feFlood flood-opacity="0" result="BackgroundImageFix"/>
<feColorMatrix in="SourceAlpha" type="matrix" values="0 0 0 0 0 0 0 0 0 0 0 0 0 0 0 0 0 0 127 0" result="hardAlpha"/>
<feOffset dx="4" dy="2"/>
<feGaussianBlur stdDeviation="2.2"/>
<feComposite in2="hardAlpha" operator="out"/>
<feColorMatrix type="matrix" values="0 0 0 0 0 0 0 0 0 0 0 0 0 0 0 0 0 0 0.36 0"/>
<feBlend mode="normal" in2="BackgroundImageFix" result="effect1_dropShadow_0_1"/>
<feBlend mode="normal" in="SourceGraphic" in2="effect1_dropShadow_0_1" result="shape"/>
</filter>
</defs>
</svg>
